<?xml version="1.0" encoding="UTF-8" standalone="no"?>
<!DOCTYPE svg PUBLIC "-//W3C//DTD SVG 1.1//EN"
 "http://www.w3.org/Graphics/SVG/1.1/DTD/svg11.dtd">
<!-- Generated by graphviz version 2.38.0 (20140413.2041)
 -->
<!-- Title: G Pages: 1 -->
<svg width="348pt" height="258pt"
 viewBox="0.00 0.00 347.89 258.00" xmlns="http://www.w3.org/2000/svg" xmlns:xlink="http://www.w3.org/1999/xlink">
<g id="graph0" class="graph" transform="scale(1 1) rotate(0) translate(4 254)">
<title>G</title>
<polygon fill="white" stroke="none" points="-4,4 -4,-254 343.889,-254 343.889,4 -4,4"/>
<g id="clust1" class="cluster"><title>cluster_Global</title>
<path fill="none" stroke="gray" d="M196.889,-8C196.889,-8 319.889,-8 319.889,-8 325.889,-8 331.889,-14 331.889,-20 331.889,-20 331.889,-230 331.889,-230 331.889,-236 325.889,-242 319.889,-242 319.889,-242 196.889,-242 196.889,-242 190.889,-242 184.889,-236 184.889,-230 184.889,-230 184.889,-20 184.889,-20 184.889,-14 190.889,-8 196.889,-8"/>
<text text-anchor="middle" x="258.389" y="-229.2" font-family="Times,serif" font-size="11.00" fill="gray">Global</text>
</g>
<!-- \\PositionException -->
<g id="node1" class="node"><title>\\PositionException</title>
<polygon fill="none" stroke="black" points="323.889,-214 192.889,-214 192.889,-178 323.889,-178 323.889,-214"/>
<text text-anchor="middle" x="258.389" y="-193.2" font-family="Courier,monospace" font-size="11.00">PositionException</text>
</g>
<!-- \\Exception -->
<g id="node5" class="node"><title>\\Exception</title>
<ellipse fill="none" stroke="black" cx="60.4446" cy="-142" rx="60.3893" ry="18"/>
<text text-anchor="middle" x="60.4446" y="-138.3" font-family="Times,serif" font-size="14.00" fill="gray">\Exception</text>
</g>
<!-- \\PositionException&#45;&gt;\\Exception -->
<g id="edge1" class="edge"><title>\\PositionException&#45;&gt;\\Exception</title>
<path fill="none" stroke="black" d="M192.687,-178.169C167.507,-171.23 139.001,-163.374 115.004,-156.76"/>
<polygon fill="none" stroke="black" points="115.933,-153.386 105.362,-154.103 114.073,-160.134 115.933,-153.386"/>
</g>
<!-- \\Position -->
<g id="node2" class="node"><title>\\Position</title>
<polygon fill="none" stroke="black" points="293.889,-160 222.889,-160 222.889,-124 293.889,-124 293.889,-160"/>
<text text-anchor="middle" x="258.389" y="-139.2" font-family="Courier,monospace" font-size="11.00">Position</text>
</g>
<!-- \\MoveException -->
<g id="node3" class="node"><title>\\MoveException</title>
<polygon fill="none" stroke="black" points="310.389,-106 206.389,-106 206.389,-70 310.389,-70 310.389,-106"/>
<text text-anchor="middle" x="258.389" y="-85.2" font-family="Courier,monospace" font-size="11.00">MoveException</text>
</g>
<!-- \\MoveException&#45;&gt;\\Exception -->
<g id="edge2" class="edge"><title>\\MoveException&#45;&gt;\\Exception</title>
<path fill="none" stroke="black" d="M206.163,-102.117C178.168,-109.833 143.521,-119.381 115.147,-127.2"/>
<polygon fill="none" stroke="black" points="114.104,-123.857 105.394,-129.888 115.964,-130.605 114.104,-123.857"/>
</g>
<!-- \\Move -->
<g id="node4" class="node"><title>\\Move</title>
<polygon fill="none" stroke="black" points="285.389,-52 231.389,-52 231.389,-16 285.389,-16 285.389,-52"/>
<text text-anchor="middle" x="258.389" y="-31.2" font-family="Courier,monospace" font-size="11.00">Move</text>
</g>
</g>
</svg>
