<?xml version="1.0" encoding="UTF-8" standalone="no"?>
<!DOCTYPE svg PUBLIC "-//W3C//DTD SVG 1.1//EN"
 "http://www.w3.org/Graphics/SVG/1.1/DTD/svg11.dtd">
<!-- Generated by graphviz version 2.38.0 (20140413.2041)
 -->
<!-- Title: G Pages: 1 -->
<svg width="321pt" height="150pt"
 viewBox="0.00 0.00 320.89 150.00" xmlns="http://www.w3.org/2000/svg" xmlns:xlink="http://www.w3.org/1999/xlink">
<g id="graph0" class="graph" transform="scale(1 1) rotate(0) translate(4 146)">
<title>G</title>
<polygon fill="white" stroke="none" points="-4,4 -4,-146 316.889,-146 316.889,4 -4,4"/>
<g id="clust1" class="cluster"><title>cluster_Global</title>
<path fill="none" stroke="gray" d="M196.889,-8C196.889,-8 292.889,-8 292.889,-8 298.889,-8 304.889,-14 304.889,-20 304.889,-20 304.889,-122 304.889,-122 304.889,-128 298.889,-134 292.889,-134 292.889,-134 196.889,-134 196.889,-134 190.889,-134 184.889,-128 184.889,-122 184.889,-122 184.889,-20 184.889,-20 184.889,-14 190.889,-8 196.889,-8"/>
<text text-anchor="middle" x="244.889" y="-121.2" font-family="Times,serif" font-size="11.00" fill="gray">Global</text>
</g>
<!-- \\MoveException -->
<g id="node1" class="node"><title>\\MoveException</title>
<polygon fill="none" stroke="black" points="296.889,-106 192.889,-106 192.889,-70 296.889,-70 296.889,-106"/>
<text text-anchor="middle" x="244.889" y="-85.2" font-family="Courier,monospace" font-size="11.00">MoveException</text>
</g>
<!-- \\Exception -->
<g id="node3" class="node"><title>\\Exception</title>
<ellipse fill="none" stroke="black" cx="60.4446" cy="-88" rx="60.3893" ry="18"/>
<text text-anchor="middle" x="60.4446" y="-84.3" font-family="Times,serif" font-size="14.00" fill="gray">\Exception</text>
</g>
<!-- \\MoveException&#45;&gt;\\Exception -->
<g id="edge1" class="edge"><title>\\MoveException&#45;&gt;\\Exception</title>
<path fill="none" stroke="black" d="M192.583,-88C173.558,-88 151.649,-88 131.253,-88"/>
<polygon fill="none" stroke="black" points="131.066,-84.5001 121.066,-88 131.066,-91.5001 131.066,-84.5001"/>
</g>
<!-- \\Move -->
<g id="node2" class="node"><title>\\Move</title>
<polygon fill="none" stroke="black" points="271.889,-52 217.889,-52 217.889,-16 271.889,-16 271.889,-52"/>
<text text-anchor="middle" x="244.889" y="-31.2" font-family="Courier,monospace" font-size="11.00">Move</text>
</g>
</g>
</svg>
